# xmcd
#
# Track frame offsets:
#	150
#	11882
#	25357
#	36467
#	52110
#	63182
#	75860
#	91615
#	108047
#	121595
#	136267
#	152957
#	170497
#	185307
#	202327
#	215940
#
# Disc length: 3053 seconds
#
# Revision: 1
# Processed by: cddbd v1.5.1PL0 Copyright (c) Steve Scherf et al.
# Submitted via: CDex 1.50Beta5
#
DISCID=d80beb10
DTITLE=さまざまなアーティスト - スーパー・セレクト・シリーズ COVERS
DYEAR=1900
DGENRE=Other
TTITLE0=平尾昌晃/君は我が運命
TTITLE1=平尾昌晃/監獄ロック
TTITLE2=伊東ゆかり/砂に消えた恋
TTITLE3=伊東ゆかり/恋する瞳
TTITLE4=布施明/君に涙とほほえみを
TTITLE5=布施明/この胸のときめきを
TTITLE6=岸洋子/恋心
TTITLE7=岸洋子/愛の讃歌
TTITLE8=江利チエミ/テネシー・ワルツ
TTITLE9=梓みちよ/ラスト・ダンスを私と
TTITLE10=梓みちよ/リリー・マルレーン
TTITLE11=ペギー葉山/ラ・ノビア
TTITLE12=ペギー葉山/ドレミの歌
TTITLE13=ダーク・ダックス/ともしび
TTITLE14=ザ・ピーナッツ/可愛い花
TTITLE15=ザ・ピーナッツ/スターダスト
EXTD=
EXTT0=
EXTT1=
EXTT2=
EXTT3=
EXTT4=
EXTT5=
EXTT6=
EXTT7=
EXTT8=
EXTT9=
EXTT10=
EXTT11=
EXTT12=
EXTT13=
EXTT14=
EXTT15=
PLAYORDER=
